# xmcd CD database file
#
# Track frame offsets:
#	150
#	16852
#	36207
#
# Disc length: 702 seconds
#
# Revision: 0
# Processed by: cddbd v1.5.1PL0 Copyright (c) Steve Scherf et al.
# Submitted via: CDex 1.40Release
#
DISCID=1802bc03
DTITLE=VANILLA - ヌードと愛情
DYEAR=1900
DGENRE=ロック (日本)
TTITLE0=ヌードと愛情
TTITLE1=愛をちょうだい (Leigh Gorman's mix)
TTITLE2=ヌードと愛情 (Backing track)
EXTD=
EXTT0=
EXTT1=
EXTT2=
PLAYORDER=
